<svg viewBox="0 0 211 32" fill="none" xmlns="http://www.w3.org/2000/svg">
<path fill-rule="evenodd" clip-rule="evenodd" d="M8.37485 21.4393C6.05384 21.4393 4.26603 19.7709 4.26603 17.2523C4.26603 14.7341 6.02251 13.0656 8.37485 13.0656C9.94334 13.0656 11.104 13.7582 11.9824 14.6395L14.3347 11.3025C12.9231 9.88592 10.8844 9.00439 8.37485 9.00439C3.5443 9.00439 0 12.2787 0 17.2523C0 22.2577 3.51297 25.5002 8.31218 25.5002C10.9471 25.5002 13.0171 24.5244 14.366 23.1709L12.0764 19.8335C11.1983 20.715 9.97495 21.4393 8.37485 21.4393Z" fill="#01093F"/>
<path fill-rule="evenodd" clip-rule="evenodd" d="M23.0553 21.4393C20.7027 21.4393 18.8833 19.7709 18.8833 17.2523C18.8833 14.7341 20.7027 13.0656 23.0553 13.0656C25.4077 13.0656 27.2271 14.7341 27.2271 17.2523C27.2271 19.7709 25.4077 21.4393 23.0553 21.4393ZM23.0553 9.00439C18.2244 9.00439 14.6172 12.3416 14.6172 17.2523C14.6172 22.1636 18.2244 25.5002 23.0553 25.5002C27.8858 25.5002 31.493 22.1636 31.493 17.2523C31.493 12.3416 27.8858 9.00439 23.0553 9.00439Z" fill="#01093F"/>
<path fill-rule="evenodd" clip-rule="evenodd" d="M42.1359 9.00439C39.846 9.00439 38.1521 10.1063 37.0544 11.6487V9.38227H33.0391V25.1224H37.1798V17.5988C37.1798 14.7967 38.1835 13.0024 40.5987 13.0024C42.3555 13.0024 43.4532 14.0415 43.4532 16.4022V25.1224H47.6876V15.3635C47.6876 11.3972 45.8058 9.00439 42.1359 9.00439Z" fill="#01093F"/>
<path fill-rule="evenodd" clip-rule="evenodd" d="M66.5016 15.4893C66.9094 13.6007 68.2267 12.5302 70.2028 12.5302C72.2102 12.5302 73.3708 13.7896 73.5591 15.4893H66.5016ZM70.3271 9.00439C65.4023 9.00439 62.2969 12.5934 62.2969 17.2523C62.2969 21.9427 65.4023 25.5002 70.7033 25.5002C73.7147 25.5002 75.6595 24.4927 76.9455 23.4225L75.2203 19.9912C74.1223 20.9354 72.6481 21.5965 70.7663 21.5965C68.9466 21.5965 67.0648 20.6835 66.5629 18.5746L66.5313 18.5114H78.0748V17.3781C78.0748 12.3099 75.126 9.00439 70.3271 9.00439Z" fill="#01093F"/>
<path fill-rule="evenodd" clip-rule="evenodd" d="M89.9282 9.38232L86.07 18.0076L82.0549 9.38232H77.2246L83.8743 22.8554L80.0475 31.4181H84.4391L94.3198 9.38232H89.9282Z" fill="#01093F"/>
<path fill-rule="evenodd" clip-rule="evenodd" d="M104.406 18.7633C104.406 20.4949 102.994 22.0056 100.799 22.0056C99.3556 22.0056 98.5715 21.3447 98.5715 20.3374C98.5715 19.4559 99.2303 18.7948 100.516 18.6061L104.406 18.1336V18.7633ZM101.676 9.03613C98.2572 9.03613 95.7163 10.2324 94.6813 12.5931L97.7553 14.7967C98.3512 13.2857 100.045 12.7821 101.676 12.7821C103.527 12.7821 104.405 13.4432 104.405 14.3559V14.6077C104.405 14.9856 104.185 15.1746 103.59 15.2375L99.2925 15.6153C96.4064 15.8986 94.2734 17.6928 94.2734 20.5575C94.2734 23.4537 96.4691 25.4685 99.5745 25.4685C102.021 25.4685 103.59 24.2723 104.405 23.0129V25.1538H108.546V15.4264C108.546 11.0507 106.256 9.03613 101.676 9.03613Z" fill="#01093F"/>
<path fill-rule="evenodd" clip-rule="evenodd" d="M119.73 9.00439C117.44 9.00439 115.746 10.1063 114.648 11.6487V9.38227H110.633V25.1224H114.774V17.5988C114.774 14.7967 115.777 13.0024 118.192 13.0024C119.949 13.0024 121.047 14.0415 121.047 16.4022V25.1224H125.282V15.3635C125.282 11.3972 123.4 9.00439 119.73 9.00439Z" fill="#01093F"/>
<path fill-rule="evenodd" clip-rule="evenodd" d="M135.016 21.4393C132.694 21.4393 130.906 19.7709 130.906 17.2523C130.906 14.7341 132.663 13.0656 135.016 13.0656C136.584 13.0656 137.745 13.7582 138.623 14.6395L140.975 11.3025C139.564 9.88592 137.525 9.00439 135.016 9.00439C130.185 9.00439 126.641 12.2787 126.641 17.2523C126.641 22.2577 130.154 25.5002 134.953 25.5002C137.588 25.5002 139.658 24.5244 141.007 23.1709L138.717 19.8335C137.839 20.715 136.616 21.4393 135.016 21.4393Z" fill="#01093F"/>
<mask id="mask0" mask-type="alpha" maskUnits="userSpaceOnUse" x="0" y="0" width="211" height="32">
<path fill-rule="evenodd" clip-rule="evenodd" d="M0 31.8275H210.943V0H0V31.8275Z" fill="white"/>
</mask>
<g mask="url(#mask0)">
<path fill-rule="evenodd" clip-rule="evenodd" d="M142.654 25.1221H146.795V9.38232H142.654V25.1221Z" fill="#01093F"/>
<path fill-rule="evenodd" clip-rule="evenodd" d="M144.723 2.04834C143.217 2.04834 142.088 3.21314 142.088 4.7241C142.088 6.23505 143.217 7.36841 144.723 7.36841C146.228 7.36841 147.389 6.23505 147.389 4.7241C147.389 3.21314 146.228 2.04834 144.723 2.04834Z" fill="#01093F"/>
<path fill-rule="evenodd" clip-rule="evenodd" d="M158.013 9.00439C155.723 9.00439 154.029 10.1063 152.931 11.6487V9.38227H148.916V25.1224H153.056V17.5988C153.056 14.7967 154.06 13.0024 156.476 13.0024C158.232 13.0024 159.33 14.0415 159.33 16.4022V25.1224H163.565V15.3635C163.565 11.3972 161.682 9.00439 158.013 9.00439Z" fill="#01093F"/>
<path fill-rule="evenodd" clip-rule="evenodd" d="M173.453 21.4708C171.101 21.4708 169.344 19.8023 169.344 17.2523C169.344 14.7026 171.101 13.0342 173.453 13.0342C175.806 13.0342 177.531 14.6395 177.531 17.2523C177.531 19.8335 175.806 21.4708 173.453 21.4708ZM177.437 11.5861C176.559 10.1695 174.739 9.00439 172.324 9.00439C168.434 9.00439 165.078 11.9325 165.078 17.1892C165.078 22.4152 168.278 25.2796 172.45 25.2796C174.708 25.2796 176.464 24.3355 177.5 22.8557V23.863C177.5 26.1297 176.402 27.9239 172.888 27.9239C170.975 27.9239 169.469 27.2313 168.152 25.9407L166.113 29.3723C167.744 30.8832 169.877 31.8276 173.045 31.8276C179.632 31.8276 181.577 28.1443 181.577 24.0836V9.38255H177.437V11.5861Z" fill="#01093F"/>
<path fill-rule="evenodd" clip-rule="evenodd" d="M183.917 13.626C183.201 13.626 182.67 14.1719 182.67 14.8912C182.67 15.6105 183.201 16.1568 183.917 16.1568C184.634 16.1568 185.192 15.6105 185.192 14.8912C185.192 14.1719 184.634 13.626 183.917 13.626Z" fill="#01093F"/>
<path fill-rule="evenodd" clip-rule="evenodd" d="M189.784 14.598C188.802 14.598 188.045 13.8921 188.045 12.8266C188.045 11.7609 188.788 11.0549 189.784 11.0549C190.447 11.0549 190.939 11.3477 191.31 11.7208L192.306 10.3092C191.708 9.70954 190.845 9.33667 189.784 9.33667C187.74 9.33667 186.24 10.7216 186.24 12.8266C186.24 14.9442 187.726 16.3163 189.757 16.3163C190.872 16.3163 191.748 15.9033 192.319 15.331L191.35 13.9188C190.979 14.2917 190.461 14.598 189.784 14.598Z" fill="#01093F"/>
<path fill-rule="evenodd" clip-rule="evenodd" d="M196.139 14.598C195.143 14.598 194.373 13.8921 194.373 12.8266C194.373 11.7609 195.143 11.0549 196.139 11.0549C197.134 11.0549 197.904 11.7609 197.904 12.8266C197.904 13.8921 197.134 14.598 196.139 14.598ZM196.141 9.33667C194.097 9.33667 192.57 10.7486 192.57 12.8266C192.57 14.9047 194.097 16.3163 196.141 16.3163C198.185 16.3163 199.711 14.9047 199.711 12.8266C199.711 10.7486 198.185 9.33667 196.141 9.33667Z" fill="#01093F"/>
<path fill-rule="evenodd" clip-rule="evenodd" d="M208.436 9.33667C207.334 9.33667 206.604 9.85618 206.206 10.5752C205.834 9.76269 205.131 9.33667 204.148 9.33667C203.113 9.33667 202.476 9.82947 202.078 10.4686V9.49611H200.379V16.1566H202.131V12.973C202.131 11.8407 202.503 11.0282 203.564 11.0282C204.361 11.0282 204.772 11.5213 204.772 12.4668V16.1566H206.524V12.973C206.524 11.8407 206.909 11.0282 207.984 11.0282C208.767 11.0282 209.179 11.5213 209.179 12.4668V16.1566H210.944V12.1073C210.944 10.3754 209.988 9.33667 208.436 9.33667Z" fill="#01093F"/>
<path fill-rule="evenodd" clip-rule="evenodd" d="M183.917 22.5071C183.201 22.5071 182.67 23.0533 182.67 23.7723C182.67 24.4916 183.201 25.0379 183.917 25.0379C184.634 25.0379 185.192 24.4916 185.192 23.7723C185.192 23.0533 184.634 22.5071 183.917 22.5071Z" fill="#01093F"/>
<path fill-rule="evenodd" clip-rule="evenodd" d="M190.555 22.3472C190.555 23.0801 189.958 23.7193 189.029 23.7193C188.419 23.7193 188.087 23.4396 188.087 23.0133C188.087 22.6405 188.366 22.3605 188.91 22.281L190.555 22.0812V22.3472ZM189.4 18.2314C187.953 18.2314 186.878 18.7376 186.44 19.7366L187.741 20.6693C187.993 20.0296 188.71 19.8164 189.4 19.8164C190.183 19.8164 190.554 20.0963 190.554 20.4826V20.5891C190.554 20.7489 190.462 20.8287 190.209 20.8557L188.391 21.0154C187.17 21.1356 186.268 21.8947 186.268 23.1066C186.268 24.332 187.197 25.1846 188.511 25.1846C189.546 25.1846 190.209 24.6782 190.554 24.1456V25.0513H192.307V20.9353C192.307 19.0838 191.338 18.2314 189.4 18.2314Z" fill="#01093F"/>
<path fill-rule="evenodd" clip-rule="evenodd" d="M197.469 21.5615C197.469 22.7068 197.018 23.5063 196.035 23.5063C195.266 23.5063 194.921 23.0268 194.921 22.081V18.3779H193.129V22.5204C193.129 24.1588 193.885 25.1975 195.425 25.1975C196.42 25.1975 197.084 24.705 197.535 24.0258V25.0378H199.234V18.3779H197.469V21.5615Z" fill="#01093F"/>
<path fill-rule="evenodd" clip-rule="evenodd" d="M55.4441 14.0178L52.4271 7.53711H47.293L53.0981 19.2669L55.4441 14.0178Z" fill="#01093F"/>
<path fill-rule="evenodd" clip-rule="evenodd" d="M49.9336 21.6542L49.9364 25.113H61.4515L61.4488 21.645L49.9336 21.6542Z" fill="#01093F"/>
<path fill-rule="evenodd" clip-rule="evenodd" d="M57.7935 19.267L66.4326 0.000244141H61.7448L53.1016 19.267H57.7935Z" fill="#FFAB9B"/>
</g>
</svg>
