<svg width="161" height="40" fill="none" xmlns="http://www.w3.org/2000/svg">
  <g>
    <path d="M10.03 22.071c5.22 0 9.05 3.717 9.05 8.88s-3.83 8.85-9.05 8.85c-5.305 0-9.078-3.715-9.078-8.879 0-5.163 3.802-8.85 9.078-8.85zm-4.425 8.88c0 2.723 1.872 4.709 4.425 4.709 2.497 0 4.398-1.986 4.398-4.71 0-2.723-1.901-4.765-4.398-4.765-2.553 0-4.425 2.014-4.425 4.766zM19.222 22.497h2.496v-2.412c0-3.546 2.355-5.9 5.93-5.9 1.248 0 2.24.17 3.687.652l-.652 3.546c-.624-.198-1.021-.34-1.532-.34-1.702 0-2.553.964-2.553 2.865v1.617h4.085v4.057H26.57V39.29h-4.908v-12.71h-2.468v-4.084h.028z" fill="#121840"/>
    <path d="M29.832 22.497h2.496v-2.412c0-3.546 2.355-5.9 5.93-5.9 1.247 0 2.24.17 3.687.652l-.652 3.546c-.624-.198-1.021-.34-1.532-.34-1.702 0-2.553.964-2.553 2.865v1.617h4.085v4.057h-4.085V39.29H32.3v-12.71h-2.468v-4.084zM46.286 32.426c.369 2.326 1.957 3.745 4.085 3.745 1.532 0 3.432-1.107 4.482-2.582l3.49 2.383c-2.213 2.724-4.483 3.801-7.915 3.801-5.334 0-8.936-3.517-8.936-8.68 0-5.192 3.716-9.078 8.794-9.078s8.596 3.744 8.596 9.134c0 .313-.029.738-.029 1.249l-12.567.028zm0-3.149h7.745c-.284-2.326-1.646-3.688-3.802-3.688-2.07 0-3.518 1.362-3.943 3.688zM60.584 22.497h4.907v2.837c.596-2.071 2.242-3.291 4.681-3.291.568 0 .908.028 1.646.199l-.88 4.737a6.18 6.18 0 00-1.73-.227c-1.901 0-3.688 1.05-3.688 4.34v8.17h-4.908l-.028-16.765zM73.435 25.873h1.985v-3.348h3.915v3.32h3.32v3.234h-3.291v4.964c0 1.532.283 2.412 1.73 2.412.426 0 .851-.086 1.362-.256l.539 2.894c-1.248.34-2.156.482-3.15.482-1.503 0-2.722-.482-3.545-1.504-.71-.879-.851-1.446-.851-3.375v-5.617h-1.986l-.028-3.206zM91.023 25.504c4.17 0 7.234 2.979 7.234 7.092 0 4.114-3.064 7.092-7.234 7.092-4.227 0-7.262-2.978-7.262-7.092 0-4.113 3.035-7.092 7.262-7.092zm-3.546 7.092c0 2.185 1.504 3.773 3.546 3.773 1.986 0 3.518-1.588 3.518-3.773 0-2.184-1.532-3.801-3.518-3.801-2.042 0-3.546 1.617-3.546 3.801zM109.009 22.071c5.22 0 9.05 3.717 9.05 8.88s-3.83 8.88-9.05 8.88c-5.277 0-9.078-3.717-9.078-8.88s3.773-8.88 9.078-8.88zm-4.454 8.88c0 2.723 1.872 4.709 4.426 4.709 2.496 0 4.397-1.986 4.397-4.71 0-2.723-1.901-4.737-4.397-4.737-2.554-.028-4.426 1.986-4.426 4.738zM122.314 22.497l2.582 7.546c.312.908.539 1.958.624 3.348.142-1.39.312-2.043.709-3.348l2.496-7.546h3.66l2.496 7.546c.454 1.305.539 1.9.71 3.348.113-1.39.283-2.412.567-3.348l2.638-7.546h5.078l-6.241 16.766h-3.688l-2.638-7.688c-.454-1.305-.624-2.043-.738-3.688-.283 1.674-.34 2.298-.822 3.688l-2.582 7.688h-3.716l-6.241-16.766h5.106zM145.236 22.497h4.908v2.468c.964-1.872 2.894-2.894 5.22-2.894 1.73 0 3.376.681 4.34 1.816.908 1.078 1.192 2.241 1.192 4.766v10.61h-4.908v-9.39c0-2.156-.653-3.717-2.724-3.717-1.985 0-3.12 1.532-3.12 4.17v8.937h-4.908V22.497z" fill="#121840"/>
    <path d="M140.782.68s-.624-.68-1.674-.68c-1.106 0-1.872.794-1.872.794l-20.057 19.49h11.149l10.667-10.412 3.745-3.744s.68-.681 1.673-.681c1.135 0 1.816.624 1.816.624L140.782.68z" fill="#D9D8D6"/>
    <path d="M146.314 6.042l14.582 14.213h-11.093L139.08 9.844l3.745-3.745s.68-.681 1.673-.681c1.135 0 1.816.624 1.816.624z" fill="#121840"/>
  </g>
</svg>
